<mxfile host="app.diagrams.net" modified="2023-05-23T16:44:08.750Z" agent="Mozilla/5.0 (Windows NT 10.0; Win64; x64; rv:109.0) Gecko/20100101 Firefox/113.0" etag="85x1svzrCxJhvwPIRiO6" version="21.3.3" type="github">
  <diagram name="Страница 1" id="r_lVDRgGp5uJx9Xpam9D">
    <mxGraphModel dx="2289" dy="586" grid="1" gridSize="10" guides="1" tooltips="1" connect="1" arrows="1" fold="1" page="1" pageScale="1" pageWidth="827" pageHeight="1169" math="0" shadow="0">
      <root>
        <mxCell id="0" />
        <mxCell id="1" parent="0" />
        <mxCell id="Q5koWyMDlj7Sh_N4O_10-7" value="&lt;div&gt;главное меню игри&lt;/div&gt;" style="rounded=1;whiteSpace=wrap;html=1;" vertex="1" parent="1">
          <mxGeometry x="354" y="10" width="120" height="60" as="geometry" />
        </mxCell>
        <mxCell id="Q5koWyMDlj7Sh_N4O_10-8" value="" style="shape=flexArrow;endArrow=classic;html=1;rounded=0;" edge="1" parent="1">
          <mxGeometry width="50" height="50" relative="1" as="geometry">
            <mxPoint x="413" y="70" as="sourcePoint" />
            <mxPoint x="413" y="140" as="targetPoint" />
          </mxGeometry>
        </mxCell>
        <mxCell id="Q5koWyMDlj7Sh_N4O_10-23" value="" style="edgeStyle=orthogonalEdgeStyle;rounded=0;orthogonalLoop=1;jettySize=auto;html=1;" edge="1" parent="1" source="Q5koWyMDlj7Sh_N4O_10-11" target="Q5koWyMDlj7Sh_N4O_10-22">
          <mxGeometry relative="1" as="geometry" />
        </mxCell>
        <mxCell id="Q5koWyMDlj7Sh_N4O_10-11" value="опредиления правил игри и фукция &quot;gameCard&quot;" style="rounded=1;whiteSpace=wrap;html=1;" vertex="1" parent="1">
          <mxGeometry x="289" y="320" width="250" height="60" as="geometry" />
        </mxCell>
        <mxCell id="Q5koWyMDlj7Sh_N4O_10-12" value="GameCard" style="swimlane;whiteSpace=wrap;html=1;" vertex="1" parent="1">
          <mxGeometry x="-10" width="210" height="220" as="geometry" />
        </mxCell>
        <mxCell id="Q5koWyMDlj7Sh_N4O_10-17" value="" style="edgeStyle=orthogonalEdgeStyle;rounded=0;orthogonalLoop=1;jettySize=auto;html=1;" edge="1" parent="Q5koWyMDlj7Sh_N4O_10-12" source="Q5koWyMDlj7Sh_N4O_10-13" target="Q5koWyMDlj7Sh_N4O_10-16">
          <mxGeometry relative="1" as="geometry" />
        </mxCell>
        <mxCell id="Q5koWyMDlj7Sh_N4O_10-13" value="&quot;GameCard&quot; это функция для определения карти и ее количество очков" style="rounded=1;whiteSpace=wrap;html=1;" vertex="1" parent="Q5koWyMDlj7Sh_N4O_10-12">
          <mxGeometry y="20" width="210" height="60" as="geometry" />
        </mxCell>
        <mxCell id="Q5koWyMDlj7Sh_N4O_10-16" value="потом после определения карти выходит с функции" style="whiteSpace=wrap;html=1;rounded=1;" vertex="1" parent="Q5koWyMDlj7Sh_N4O_10-12">
          <mxGeometry y="100" width="210" height="60" as="geometry" />
        </mxCell>
        <mxCell id="Q5koWyMDlj7Sh_N4O_10-19" value="" style="edgeStyle=orthogonalEdgeStyle;rounded=0;orthogonalLoop=1;jettySize=auto;html=1;" edge="1" parent="1" source="Q5koWyMDlj7Sh_N4O_10-18" target="Q5koWyMDlj7Sh_N4O_10-11">
          <mxGeometry relative="1" as="geometry" />
        </mxCell>
        <mxCell id="Q5koWyMDlj7Sh_N4O_10-18" value="передача в функцию random" style="rounded=1;whiteSpace=wrap;html=1;" vertex="1" parent="1">
          <mxGeometry x="354" y="230" width="120" height="60" as="geometry" />
        </mxCell>
        <mxCell id="Q5koWyMDlj7Sh_N4O_10-21" value="&quot;random&quot; это функия которая создает рандомные числа от 0 до 12" style="rounded=0;whiteSpace=wrap;html=1;" vertex="1" parent="1">
          <mxGeometry x="590" y="140" width="210" height="60" as="geometry" />
        </mxCell>
        <mxCell id="Q5koWyMDlj7Sh_N4O_10-22" value="дальше полученное значения получает &quot;Dil&quot;" style="rounded=1;whiteSpace=wrap;html=1;" vertex="1" parent="1">
          <mxGeometry x="281" y="410" width="264" height="60" as="geometry" />
        </mxCell>
        <mxCell id="Q5koWyMDlj7Sh_N4O_10-24" value="&quot;Dil&quot; - ето дилер " style="rounded=1;whiteSpace=wrap;html=1;" vertex="1" parent="1">
          <mxGeometry x="10" y="250" width="170" height="60" as="geometry" />
        </mxCell>
        <mxCell id="Q5koWyMDlj7Sh_N4O_10-25" value="&quot;MainUser&quot; - сам игрок" style="rounded=1;whiteSpace=wrap;html=1;" vertex="1" parent="1">
          <mxGeometry x="20" y="320" width="160" height="60" as="geometry" />
        </mxCell>
        <mxCell id="Q5koWyMDlj7Sh_N4O_10-27" value="" style="shape=flexArrow;endArrow=classic;html=1;rounded=0;endWidth=6;endSize=7;" edge="1" parent="1">
          <mxGeometry width="50" height="50" relative="1" as="geometry">
            <mxPoint x="414" y="470" as="sourcePoint" />
            <mxPoint x="414" y="500" as="targetPoint" />
          </mxGeometry>
        </mxCell>
        <mxCell id="Q5koWyMDlj7Sh_N4O_10-33" value="" style="edgeStyle=orthogonalEdgeStyle;rounded=0;orthogonalLoop=1;jettySize=auto;html=1;" edge="1" parent="1" source="Q5koWyMDlj7Sh_N4O_10-31" target="Q5koWyMDlj7Sh_N4O_10-32">
          <mxGeometry relative="1" as="geometry" />
        </mxCell>
        <mxCell id="Q5koWyMDlj7Sh_N4O_10-31" value="передача в функцию random" style="rounded=1;whiteSpace=wrap;html=1;" vertex="1" parent="1">
          <mxGeometry x="354" y="500" width="120" height="60" as="geometry" />
        </mxCell>
        <mxCell id="Q5koWyMDlj7Sh_N4O_10-35" value="" style="edgeStyle=orthogonalEdgeStyle;rounded=0;orthogonalLoop=1;jettySize=auto;html=1;" edge="1" parent="1" source="Q5koWyMDlj7Sh_N4O_10-32" target="Q5koWyMDlj7Sh_N4O_10-34">
          <mxGeometry relative="1" as="geometry" />
        </mxCell>
        <mxCell id="Q5koWyMDlj7Sh_N4O_10-32" value="&#xa;GameCard&#xa;&#xa;" style="rounded=1;whiteSpace=wrap;html=1;" vertex="1" parent="1">
          <mxGeometry x="289" y="590" width="250" height="60" as="geometry" />
        </mxCell>
        <mxCell id="Q5koWyMDlj7Sh_N4O_10-48" value="" style="edgeStyle=orthogonalEdgeStyle;rounded=0;orthogonalLoop=1;jettySize=auto;html=1;" edge="1" parent="1" source="Q5koWyMDlj7Sh_N4O_10-34" target="Q5koWyMDlj7Sh_N4O_10-46">
          <mxGeometry relative="1" as="geometry" />
        </mxCell>
        <mxCell id="Q5koWyMDlj7Sh_N4O_10-34" value="дальше полученное значения получает &quot;MainUser&quot;" style="rounded=1;whiteSpace=wrap;html=1;" vertex="1" parent="1">
          <mxGeometry x="283" y="680" width="264" height="60" as="geometry" />
        </mxCell>
        <mxCell id="Q5koWyMDlj7Sh_N4O_10-43" value="" style="edgeStyle=orthogonalEdgeStyle;rounded=0;orthogonalLoop=1;jettySize=auto;html=1;" edge="1" source="Q5koWyMDlj7Sh_N4O_10-44" target="Q5koWyMDlj7Sh_N4O_10-47" parent="1">
          <mxGeometry relative="1" as="geometry" />
        </mxCell>
        <mxCell id="Q5koWyMDlj7Sh_N4O_10-44" value="&#xa;GameCard&#xa;&#xa;" style="rounded=1;whiteSpace=wrap;html=1;" vertex="1" parent="1">
          <mxGeometry x="291" y="850" width="250" height="60" as="geometry" />
        </mxCell>
        <mxCell id="Q5koWyMDlj7Sh_N4O_10-45" value="" style="edgeStyle=orthogonalEdgeStyle;rounded=0;orthogonalLoop=1;jettySize=auto;html=1;" edge="1" source="Q5koWyMDlj7Sh_N4O_10-46" target="Q5koWyMDlj7Sh_N4O_10-44" parent="1">
          <mxGeometry relative="1" as="geometry" />
        </mxCell>
        <mxCell id="Q5koWyMDlj7Sh_N4O_10-46" value="передача в функцию random" style="rounded=1;whiteSpace=wrap;html=1;" vertex="1" parent="1">
          <mxGeometry x="356" y="770" width="120" height="60" as="geometry" />
        </mxCell>
        <mxCell id="Q5koWyMDlj7Sh_N4O_10-53" value="" style="edgeStyle=orthogonalEdgeStyle;rounded=0;orthogonalLoop=1;jettySize=auto;html=1;" edge="1" parent="1" source="Q5koWyMDlj7Sh_N4O_10-47" target="Q5koWyMDlj7Sh_N4O_10-52">
          <mxGeometry relative="1" as="geometry" />
        </mxCell>
        <mxCell id="Q5koWyMDlj7Sh_N4O_10-47" value="дальше полученное значения получает &quot;Dil&quot;" style="rounded=1;whiteSpace=wrap;html=1;" vertex="1" parent="1">
          <mxGeometry x="283" y="940" width="264" height="60" as="geometry" />
        </mxCell>
        <mxCell id="Q5koWyMDlj7Sh_N4O_10-67" style="edgeStyle=orthogonalEdgeStyle;rounded=0;orthogonalLoop=1;jettySize=auto;html=1;entryX=0.5;entryY=0;entryDx=0;entryDy=0;" edge="1" parent="1" source="Q5koWyMDlj7Sh_N4O_10-52" target="Q5koWyMDlj7Sh_N4O_10-57">
          <mxGeometry relative="1" as="geometry" />
        </mxCell>
        <mxCell id="Q5koWyMDlj7Sh_N4O_10-84" style="edgeStyle=orthogonalEdgeStyle;rounded=0;orthogonalLoop=1;jettySize=auto;html=1;entryX=0.5;entryY=0;entryDx=0;entryDy=0;" edge="1" parent="1" source="Q5koWyMDlj7Sh_N4O_10-52" target="Q5koWyMDlj7Sh_N4O_10-74">
          <mxGeometry relative="1" as="geometry" />
        </mxCell>
        <mxCell id="Q5koWyMDlj7Sh_N4O_10-52" value="&quot;MainUser&quot; делает вибор взять карту или нет или удвоить" style="rounded=1;whiteSpace=wrap;html=1;" vertex="1" parent="1">
          <mxGeometry x="304" y="1030" width="224" height="60" as="geometry" />
        </mxCell>
        <mxCell id="Q5koWyMDlj7Sh_N4O_10-56" value="" style="edgeStyle=orthogonalEdgeStyle;rounded=0;orthogonalLoop=1;jettySize=auto;html=1;" edge="1" source="Q5koWyMDlj7Sh_N4O_10-57" target="Q5koWyMDlj7Sh_N4O_10-59" parent="1">
          <mxGeometry relative="1" as="geometry" />
        </mxCell>
        <mxCell id="Q5koWyMDlj7Sh_N4O_10-57" value="GameCard" style="rounded=1;whiteSpace=wrap;html=1;" vertex="1" parent="1">
          <mxGeometry x="658" y="1140" width="250" height="60" as="geometry" />
        </mxCell>
        <mxCell id="Q5koWyMDlj7Sh_N4O_10-59" value="дальше полученное значения получает &quot;Dil&quot;" style="rounded=1;whiteSpace=wrap;html=1;" vertex="1" parent="1">
          <mxGeometry x="650" y="1230" width="264" height="60" as="geometry" />
        </mxCell>
        <mxCell id="Q5koWyMDlj7Sh_N4O_10-60" value="" style="shape=flexArrow;endArrow=classic;html=1;rounded=0;endWidth=6;endSize=7;" edge="1" parent="1">
          <mxGeometry width="50" height="50" relative="1" as="geometry">
            <mxPoint x="783" y="1290" as="sourcePoint" />
            <mxPoint x="783" y="1320" as="targetPoint" />
          </mxGeometry>
        </mxCell>
        <mxCell id="Q5koWyMDlj7Sh_N4O_10-61" value="" style="edgeStyle=orthogonalEdgeStyle;rounded=0;orthogonalLoop=1;jettySize=auto;html=1;" edge="1" source="Q5koWyMDlj7Sh_N4O_10-62" target="Q5koWyMDlj7Sh_N4O_10-64" parent="1">
          <mxGeometry relative="1" as="geometry" />
        </mxCell>
        <mxCell id="Q5koWyMDlj7Sh_N4O_10-62" value="передача в функцию random" style="rounded=1;whiteSpace=wrap;html=1;" vertex="1" parent="1">
          <mxGeometry x="723" y="1320" width="120" height="60" as="geometry" />
        </mxCell>
        <mxCell id="Q5koWyMDlj7Sh_N4O_10-63" value="" style="edgeStyle=orthogonalEdgeStyle;rounded=0;orthogonalLoop=1;jettySize=auto;html=1;" edge="1" source="Q5koWyMDlj7Sh_N4O_10-64" parent="1">
          <mxGeometry relative="1" as="geometry">
            <mxPoint x="784" y="1500" as="targetPoint" />
          </mxGeometry>
        </mxCell>
        <mxCell id="Q5koWyMDlj7Sh_N4O_10-64" value="GameCard" style="rounded=1;whiteSpace=wrap;html=1;" vertex="1" parent="1">
          <mxGeometry x="658" y="1410" width="250" height="60" as="geometry" />
        </mxCell>
        <mxCell id="Q5koWyMDlj7Sh_N4O_10-65" value="Gamewin_or_Gameover" style="rounded=1;whiteSpace=wrap;html=1;" vertex="1" parent="1">
          <mxGeometry x="724" y="1500" width="156" height="60" as="geometry" />
        </mxCell>
        <mxCell id="Q5koWyMDlj7Sh_N4O_10-66" value="&lt;div&gt;Gamewin_or_Gameover&lt;/div&gt;&lt;div&gt;определяет у кого больше очков и есть ли у кого перебор 21&lt;br&gt;&lt;/div&gt;" style="rounded=1;whiteSpace=wrap;html=1;" vertex="1" parent="1">
          <mxGeometry x="330" y="1180" width="190" height="60" as="geometry" />
        </mxCell>
        <mxCell id="Q5koWyMDlj7Sh_N4O_10-68" value="" style="edgeStyle=orthogonalEdgeStyle;rounded=0;orthogonalLoop=1;jettySize=auto;html=1;" edge="1" source="Q5koWyMDlj7Sh_N4O_10-69" parent="1">
          <mxGeometry relative="1" as="geometry">
            <mxPoint x="99" y="1590" as="targetPoint" />
          </mxGeometry>
        </mxCell>
        <mxCell id="Q5koWyMDlj7Sh_N4O_10-69" value="опредиления правил игри и фукция &quot;gameCard&quot;" style="rounded=1;whiteSpace=wrap;html=1;" vertex="1" parent="1">
          <mxGeometry x="-25" y="1500" width="250" height="60" as="geometry" />
        </mxCell>
        <mxCell id="Q5koWyMDlj7Sh_N4O_10-70" value="" style="edgeStyle=orthogonalEdgeStyle;rounded=0;orthogonalLoop=1;jettySize=auto;html=1;" edge="1" source="Q5koWyMDlj7Sh_N4O_10-71" target="Q5koWyMDlj7Sh_N4O_10-69" parent="1">
          <mxGeometry relative="1" as="geometry" />
        </mxCell>
        <mxCell id="Q5koWyMDlj7Sh_N4O_10-71" value="передача в функцию random" style="rounded=1;whiteSpace=wrap;html=1;" vertex="1" parent="1">
          <mxGeometry x="40" y="1410" width="120" height="60" as="geometry" />
        </mxCell>
        <mxCell id="Q5koWyMDlj7Sh_N4O_10-73" value="" style="edgeStyle=orthogonalEdgeStyle;rounded=0;orthogonalLoop=1;jettySize=auto;html=1;" edge="1" source="Q5koWyMDlj7Sh_N4O_10-74" target="Q5koWyMDlj7Sh_N4O_10-76" parent="1">
          <mxGeometry relative="1" as="geometry" />
        </mxCell>
        <mxCell id="Q5koWyMDlj7Sh_N4O_10-74" value="передача в функцию random" style="rounded=1;whiteSpace=wrap;html=1;" vertex="1" parent="1">
          <mxGeometry x="40" y="1140" width="120" height="60" as="geometry" />
        </mxCell>
        <mxCell id="Q5koWyMDlj7Sh_N4O_10-75" value="" style="edgeStyle=orthogonalEdgeStyle;rounded=0;orthogonalLoop=1;jettySize=auto;html=1;" edge="1" source="Q5koWyMDlj7Sh_N4O_10-76" parent="1">
          <mxGeometry relative="1" as="geometry">
            <mxPoint x="101" y="1320" as="targetPoint" />
          </mxGeometry>
        </mxCell>
        <mxCell id="Q5koWyMDlj7Sh_N4O_10-76" value="&#xa;GameCard&#xa;&#xa;" style="rounded=1;whiteSpace=wrap;html=1;" vertex="1" parent="1">
          <mxGeometry x="-25" y="1230" width="250" height="60" as="geometry" />
        </mxCell>
        <mxCell id="Q5koWyMDlj7Sh_N4O_10-79" style="edgeStyle=orthogonalEdgeStyle;rounded=0;orthogonalLoop=1;jettySize=auto;html=1;" edge="1" parent="1" source="Q5koWyMDlj7Sh_N4O_10-77" target="Q5koWyMDlj7Sh_N4O_10-71">
          <mxGeometry relative="1" as="geometry" />
        </mxCell>
        <mxCell id="Q5koWyMDlj7Sh_N4O_10-77" value="дальше полученное значения получает &quot;MainUser&quot;" style="rounded=1;whiteSpace=wrap;html=1;" vertex="1" parent="1">
          <mxGeometry x="-32" y="1320" width="264" height="60" as="geometry" />
        </mxCell>
        <mxCell id="Q5koWyMDlj7Sh_N4O_10-85" style="edgeStyle=orthogonalEdgeStyle;rounded=0;orthogonalLoop=1;jettySize=auto;html=1;entryX=0.532;entryY=0.167;entryDx=0;entryDy=0;entryPerimeter=0;" edge="1" parent="1" source="Q5koWyMDlj7Sh_N4O_10-78" target="Q5koWyMDlj7Sh_N4O_10-80">
          <mxGeometry relative="1" as="geometry" />
        </mxCell>
        <mxCell id="Q5koWyMDlj7Sh_N4O_10-78" value="дальше полученное значения получает &quot;Dil&quot;" style="rounded=1;whiteSpace=wrap;html=1;" vertex="1" parent="1">
          <mxGeometry x="-32" y="1590" width="264" height="60" as="geometry" />
        </mxCell>
        <mxCell id="Q5koWyMDlj7Sh_N4O_10-80" value="Gamewin_or_Gameover" style="rounded=1;whiteSpace=wrap;html=1;" vertex="1" parent="1">
          <mxGeometry x="17" y="1680" width="156" height="60" as="geometry" />
        </mxCell>
        <mxCell id="Q5koWyMDlj7Sh_N4O_10-83" value="" style="edgeStyle=orthogonalEdgeStyle;rounded=0;orthogonalLoop=1;jettySize=auto;html=1;" edge="1" parent="1" source="Q5koWyMDlj7Sh_N4O_10-82" target="Q5koWyMDlj7Sh_N4O_10-18">
          <mxGeometry relative="1" as="geometry" />
        </mxCell>
        <mxCell id="Q5koWyMDlj7Sh_N4O_10-82" value="&lt;div&gt;стандартная игра 3 раунда&lt;/div&gt;&lt;div&gt;долгая игра&lt;/div&gt;&lt;div&gt;1000 раундов&lt;br&gt;&lt;/div&gt;" style="rounded=1;whiteSpace=wrap;html=1;" vertex="1" parent="1">
          <mxGeometry x="353" y="140" width="120" height="60" as="geometry" />
        </mxCell>
      </root>
    </mxGraphModel>
  </diagram>
</mxfile>
